<mxfile host="65bd71144e">
    <diagram name="Page-1" id="C5R21gGD6Sj-pSpwg8dC">
        <mxGraphModel dx="757" dy="660" grid="1" gridSize="10" guides="1" tooltips="1" connect="1" arrows="1" fold="1" page="1" pageScale="1" pageWidth="827" pageHeight="1169" math="0" shadow="0">
            <root>
                <mxCell id="0"/>
                <mxCell id="1" parent="0"/>
                <mxCell id="2" value="Client" style="rounded=1;whiteSpace=wrap;html=1;arcSize=20;verticalAlign=top;align=center;fillColor=#d5e8d4;strokeColor=#82b366;" parent="1" vertex="1">
                    <mxGeometry x="120" y="80" width="360" height="480" as="geometry"/>
                </mxCell>
                <mxCell id="3" value="Kubernetes cluster" style="rounded=1;whiteSpace=wrap;html=1;arcSize=20;verticalAlign=top;align=center;fillColor=#dae8fc;strokeColor=#6c8ebf;" parent="1" vertex="1">
                    <mxGeometry x="520" y="80" width="280" height="480" as="geometry"/>
                </mxCell>
                <mxCell id="4" value="User" style="shape=umlActor;verticalLabelPosition=bottom;verticalAlign=top;html=1;" parent="1" vertex="1">
                    <mxGeometry x="40" y="200" width="30" height="60" as="geometry"/>
                </mxCell>
                <mxCell id="5" value="kubectl" style="rounded=0;whiteSpace=wrap;html=1;fillColor=#f5f5f5;strokeColor=#666666;fontColor=#333333;" parent="1" vertex="1">
                    <mxGeometry x="180" y="140" width="120" height="60" as="geometry"/>
                </mxCell>
                <mxCell id="6" value="kubelogin" style="rounded=0;whiteSpace=wrap;html=1;fillColor=#f5f5f5;strokeColor=#666666;fontColor=#333333;" parent="1" vertex="1">
                    <mxGeometry x="180" y="270" width="120" height="60" as="geometry"/>
                </mxCell>
                <mxCell id="7" value="Browser" style="rounded=0;whiteSpace=wrap;html=1;fillColor=#f5f5f5;strokeColor=#666666;fontColor=#333333;" parent="1" vertex="1">
                    <mxGeometry x="180" y="440" width="120" height="60" as="geometry"/>
                </mxCell>
                <mxCell id="8" value="kube-apiserver" style="rounded=0;whiteSpace=wrap;html=1;fillColor=#f5f5f5;strokeColor=#666666;fontColor=#333333;" parent="1" vertex="1">
                    <mxGeometry x="590" y="140" width="140" height="60" as="geometry"/>
                </mxCell>
                <mxCell id="9" value="" style="rounded=0;whiteSpace=wrap;html=1;" parent="1" vertex="1">
                    <mxGeometry x="590" y="270" width="140" height="230" as="geometry"/>
                </mxCell>
                <mxCell id="10" value="Dex configured with GitHub" style="rounded=0;whiteSpace=wrap;html=1;fillColor=#ffe6cc;strokeColor=#d79b00;align=center;verticalAlign=middle;" parent="9" vertex="1">
                    <mxGeometry x="10" y="10" width="120" height="210" as="geometry"/>
                </mxCell>
                <mxCell id="11" value="1. Run" style="endArrow=classic;html=1;rounded=0;align=left;verticalAlign=bottom;entryX=0;entryY=0.25;entryDx=0;entryDy=0;" parent="1" target="5" edge="1">
                    <mxGeometry width="50" height="50" relative="1" as="geometry">
                        <mxPoint x="80" y="200" as="sourcePoint"/>
                        <mxPoint x="150" y="160" as="targetPoint"/>
                    </mxGeometry>
                </mxCell>
                <mxCell id="12" value="2. Run" style="endArrow=classic;html=1;rounded=0;align=left;verticalAlign=bottom;entryX=0.25;entryY=0;entryDx=0;entryDy=0;exitX=0.25;exitY=1;exitDx=0;exitDy=0;" parent="1" source="5" target="6" edge="1">
                    <mxGeometry width="50" height="50" relative="1" as="geometry">
                        <mxPoint x="240" y="210" as="sourcePoint"/>
                        <mxPoint x="240" y="260" as="targetPoint"/>
                    </mxGeometry>
                </mxCell>
                <mxCell id="13" value="3. Open" style="endArrow=classic;html=1;rounded=0;align=left;verticalAlign=bottom;entryX=0.25;entryY=0;entryDx=0;entryDy=0;exitX=0.25;exitY=1;exitDx=0;exitDy=0;" parent="1" source="6" target="7" edge="1">
                    <mxGeometry width="50" height="50" relative="1" as="geometry">
                        <mxPoint x="240" y="340" as="sourcePoint"/>
                        <mxPoint x="240" y="430" as="targetPoint"/>
                    </mxGeometry>
                </mxCell>
                <mxCell id="14" value="4. Auth request" style="endArrow=classic;html=1;rounded=0;align=right;verticalAlign=bottom;exitX=1;exitY=0.75;exitDx=0;exitDy=0;entryX=0.012;entryY=0.906;entryDx=0;entryDy=0;entryPerimeter=0;" parent="1" source="7" target="9" edge="1">
                    <mxGeometry width="50" height="50" relative="1" as="geometry">
                        <mxPoint x="310" y="460" as="sourcePoint"/>
                        <mxPoint x="580" y="460" as="targetPoint"/>
                    </mxGeometry>
                </mxCell>
                <mxCell id="15" value="5. Authenticate" style="endArrow=classic;html=1;rounded=0;align=left;verticalAlign=bottom;entryX=0;entryY=0.5;entryDx=0;entryDy=0;" parent="1" source="4" target="7" edge="1">
                    <mxGeometry width="50" height="50" relative="1" as="geometry">
                        <mxPoint x="70" y="470" as="sourcePoint"/>
                        <mxPoint x="170" y="470" as="targetPoint"/>
                    </mxGeometry>
                </mxCell>
                <mxCell id="16" value="6. Auth response" style="endArrow=classic;html=1;rounded=0;dashed=1;align=right;verticalAlign=bottom;entryX=1;entryY=0.25;entryDx=0;entryDy=0;exitX=0.002;exitY=0.714;exitDx=0;exitDy=0;exitPerimeter=0;" parent="1" source="9" target="7" edge="1">
                    <mxGeometry width="50" height="50" relative="1" as="geometry">
                        <mxPoint x="580" y="480" as="sourcePoint"/>
                        <mxPoint x="310" y="480" as="targetPoint"/>
                    </mxGeometry>
                </mxCell>
                <mxCell id="17" value="7. Auth response" style="endArrow=classic;html=1;rounded=0;dashed=1;align=left;verticalAlign=top;entryX=0.75;entryY=1;entryDx=0;entryDy=0;exitX=0.75;exitY=0;exitDx=0;exitDy=0;" parent="1" source="7" target="6" edge="1">
                    <mxGeometry width="50" height="50" relative="1" as="geometry">
                        <mxPoint x="240" y="430" as="sourcePoint"/>
                        <mxPoint x="240" y="340" as="targetPoint"/>
                    </mxGeometry>
                </mxCell>
                <mxCell id="18" value="8. Token request" style="endArrow=classic;html=1;rounded=0;align=right;verticalAlign=bottom;entryX=-0.008;entryY=0.204;entryDx=0;entryDy=0;entryPerimeter=0;exitX=1;exitY=0.75;exitDx=0;exitDy=0;" parent="1" source="6" target="9" edge="1">
                    <mxGeometry width="50" height="50" relative="1" as="geometry">
                        <mxPoint x="310" y="290" as="sourcePoint"/>
                        <mxPoint x="580" y="290" as="targetPoint"/>
                    </mxGeometry>
                </mxCell>
                <mxCell id="19" value="9. Token response" style="endArrow=classic;html=1;rounded=0;dashed=1;align=right;verticalAlign=bottom;exitX=-0.008;exitY=0.061;exitDx=0;exitDy=0;exitPerimeter=0;entryX=1;entryY=0.25;entryDx=0;entryDy=0;" parent="1" source="9" target="6" edge="1">
                    <mxGeometry width="50" height="50" relative="1" as="geometry">
                        <mxPoint x="580" y="310" as="sourcePoint"/>
                        <mxPoint x="310" y="310" as="targetPoint"/>
                    </mxGeometry>
                </mxCell>
                <mxCell id="20" value="10. Token" style="endArrow=classic;html=1;rounded=0;dashed=1;align=left;verticalAlign=top;exitX=0.75;exitY=0;exitDx=0;exitDy=0;entryX=0.75;entryY=1;entryDx=0;entryDy=0;" parent="1" source="6" target="5" edge="1">
                    <mxGeometry width="50" height="50" relative="1" as="geometry">
                        <mxPoint x="240" y="260" as="sourcePoint"/>
                        <mxPoint x="240" y="210" as="targetPoint"/>
                    </mxGeometry>
                </mxCell>
                <mxCell id="21" value="11. Request with token" style="endArrow=classic;html=1;rounded=0;align=right;verticalAlign=bottom;" parent="1" source="5" target="8" edge="1">
                    <mxGeometry width="50" height="50" relative="1" as="geometry">
                        <mxPoint x="310" y="160" as="sourcePoint"/>
                        <mxPoint x="580" y="160" as="targetPoint"/>
                    </mxGeometry>
                </mxCell>
                <mxCell id="22" value="12. Get" style="endArrow=classic;html=1;rounded=0;align=left;verticalAlign=bottom;exitX=0.25;exitY=1;exitDx=0;exitDy=0;entryX=0.25;entryY=0;entryDx=0;entryDy=0;" parent="1" source="8" target="9" edge="1">
                    <mxGeometry width="50" height="50" relative="1" as="geometry">
                        <mxPoint x="660" y="210" as="sourcePoint"/>
                        <mxPoint x="660" y="260" as="targetPoint"/>
                    </mxGeometry>
                </mxCell>
                <mxCell id="23" value="13. Certificate" style="endArrow=classic;html=1;rounded=0;dashed=1;align=left;verticalAlign=top;entryX=0.75;entryY=1;entryDx=0;entryDy=0;exitX=0.75;exitY=0;exitDx=0;exitDy=0;" parent="1" source="9" target="8" edge="1">
                    <mxGeometry width="50" height="50" relative="1" as="geometry">
                        <mxPoint x="680" y="260" as="sourcePoint"/>
                        <mxPoint x="680" y="210" as="targetPoint"/>
                    </mxGeometry>
                </mxCell>
                <mxCell id="24" value="14. Response" style="endArrow=classic;html=1;rounded=0;dashed=1;align=right;verticalAlign=top;entryX=1;entryY=0.75;entryDx=0;entryDy=0;exitX=0;exitY=0.75;exitDx=0;exitDy=0;" parent="1" source="8" target="5" edge="1">
                    <mxGeometry width="50" height="50" relative="1" as="geometry">
                        <mxPoint x="580" y="180" as="sourcePoint"/>
                        <mxPoint x="310" y="180" as="targetPoint"/>
                    </mxGeometry>
                </mxCell>
                <mxCell id="25" value="15. Response" style="endArrow=classic;html=1;rounded=0;dashed=1;align=left;verticalAlign=top;targetDx=-5;targetDy=5;exitX=0;exitY=0.75;exitDx=0;exitDy=0;" parent="1" source="5" edge="1">
                    <mxGeometry width="50" height="50" relative="1" as="geometry">
                        <mxPoint x="170" y="230" as="sourcePoint"/>
                        <mxPoint x="80" y="230" as="targetPoint"/>
                    </mxGeometry>
                </mxCell>
                <mxCell id="27" value="5. Authenticate" style="endArrow=classic;html=1;rounded=0;align=left;verticalAlign=bottom;entryX=-0.003;entryY=0.838;entryDx=0;entryDy=0;exitX=1;exitY=0.5;exitDx=0;exitDy=0;entryPerimeter=0;" edge="1" parent="1" source="7" target="9">
                    <mxGeometry width="50" height="50" relative="1" as="geometry">
                        <mxPoint x="80" y="269" as="sourcePoint"/>
                        <mxPoint x="190" y="480" as="targetPoint"/>
                    </mxGeometry>
                </mxCell>
                <mxCell id="28" value="" style="image;sketch=0;aspect=fixed;html=1;points=[];align=center;fontSize=12;image=img/lib/mscae/Kubernetes.svg;" vertex="1" parent="1">
                    <mxGeometry x="540" y="100" width="41.67" height="40" as="geometry"/>
                </mxCell>
            </root>
        </mxGraphModel>
    </diagram>
</mxfile>